<svg width="99" height="54" viewBox="0 0 99 54" fill="none" xmlns="http://www.w3.org/2000/svg">
<path d="M10.6775 8L17.8879 15.2168C19.3502 16.6818 20.1749 18.6646 20.1828 20.7341V33.2721C20.1823 35.3413 19.3599 37.3256 17.8962 38.7888L10.6853 46L5.93649 41.249L19.0679 28.1119C19.3603 27.8158 19.5243 27.4164 19.5243 27.0003C19.5243 26.5841 19.3603 26.1848 19.0679 25.8886L5.93649 12.751L10.6775 8ZM0.000516891 18.6847L4.74929 13.9429C11.9592 21.1505 11.9592 32.8459 4.74929 40.0602L0.000516891 35.3091C4.59444 30.7237 4.59444 23.2788 0.000516891 18.6847Z" fill="black"/>
<path d="M35.4934 17.4814H29.7278V36.4814H35.4243C41.5006 36.4814 45.3348 32.8609 45.3348 26.999C45.3678 21.102 41.6039 17.4814 35.4934 17.4814ZM35.4614 33.93H32.8692V20.0669H35.4614C39.7054 20.0669 42.1201 22.6535 42.1201 26.9979C42.1201 31.3094 39.7033 33.93 35.4614 33.93ZM52.3764 22.4471C48.8205 22.4471 46.6799 24.4124 46.5762 27.0681H49.5798C49.6489 25.5161 50.6503 24.6885 52.3418 24.6885C54.0684 24.6885 55.1384 25.6538 55.1384 27.4814V27.8942L51.6517 28.2393C48.5789 28.584 46.1286 29.6185 46.1286 32.446C46.1286 34.9634 48.1309 36.7564 50.9966 36.7564C53.068 36.7564 54.6217 35.6873 55.174 33.7912H55.2401V36.4814H58.1405V28.0324C58.1079 24.3428 55.8982 22.4471 52.3764 22.4471ZM55.1038 30.4817C55.1038 33.1023 53.8609 34.5507 51.7203 34.5507C50.4087 34.5507 49.235 33.7922 49.235 32.5162C49.235 31.2056 50.2704 30.5504 52.1002 30.3435L55.1038 29.9988V30.4817ZM62.5945 25.4129C63.1798 23.479 64.6313 22.4471 66.6341 22.4471C69.6722 22.4471 71.1567 24.5161 71.1247 27.5505V36.4814H68.1186V28.4117C68.1186 25.8597 67.1864 24.6874 65.3565 24.6874C63.4921 24.6874 62.5945 25.9634 62.5945 28.2048V36.4814H59.5909V22.7221H62.5253V25.4118L62.5945 25.4129ZM79.1331 34.5512C76.8548 34.5512 75.5772 32.5167 75.5772 29.6206C75.5772 26.7585 76.751 24.6895 78.9953 24.6895C80.6182 24.6895 81.7574 25.724 82.0681 27.4824H85.1063C84.5901 24.2411 82.1718 22.4822 78.9262 22.4822C74.8866 22.4822 72.4007 25.9309 72.4007 29.6541C72.4007 33.4475 74.9903 36.8261 79.0299 36.8261C82.2405 36.8261 84.6918 34.9985 85.2446 31.7572H82.1718C81.8611 33.4821 80.7214 34.5501 79.1331 34.5501V34.5512ZM86.1422 29.619C86.1422 25.7916 88.4898 22.4471 92.5985 22.4471C96.7072 22.4471 99.4001 25.7916 98.9505 30.5844H89.1112C89.2496 33.1018 90.6995 34.5501 92.8055 34.5501C94.6007 34.5501 95.3605 33.3433 95.7058 32.2396H98.7094C98.1571 34.964 95.982 36.7915 92.6331 36.7915C88.5238 36.791 86.1422 33.446 86.1422 29.619ZM92.5985 24.6879C90.5957 24.6879 89.3874 26.1017 89.1804 28.3431H95.982C95.8111 26.1357 94.6007 24.6874 92.5985 24.6874V24.6879Z" fill="black"/>
</svg>
